<svg xmlns="http://www.w3.org/2000/svg" viewBox="-51.5 -51.5 1127.0 1127.0">
  <g fill="none" stroke="currentColor" stroke-linecap="round" stroke-linejoin="round">
    <path d="M 583.049,354.23 C 566.117,370.407 549.907,383.278 533.302,393.93 C 516.992,402.101 500.615,408.548 480.459,414.252 C 460.053,417.768 439.776,418.942 419.533,418.107 C 399.311,415.212 378.921,410.05 362.707,404.157 C 342.707,394.588 326.61,384.872 310.18,372.784 C 294.268,358.263 280.176,342.203 268.49,325.867 C 258.826,309.324 249.561,289.284 242.685,268.953 C 238.225,248.799 235.668,228.667 234.946,208.512 C 235.812,188.368 238.82,168.228 243.823,148.427 C 249.549,132.053 258.728,112.047 268.193,95.692 C 279.738,79.38 293.742,63.503 309.517,49.329 C 325.572,37.858 345.487,26.304 361.66,18.752 C 378.023,12.798 398.147,7.807 419.04,4.973 C 437.087,4.0 457.288,5.033 477.439,7.987 C 497.689,13.188 513.81,19.109 530.13,26.908 C 546.358,36.727 562.878,48.902 579.019,63.245 C 593.049,78.553 605.125,94.881 614.747,111.032 C 622.49,127.319 629.867,147.698 634.917,167.92 C 637.967,188.247 639.092,208.512 638.318,228.808 C 635.623,249.144 630.895,269.528 625.557,285.758 C 616.48,306.367 607.244,322.673 593.539,342.058 L 583.049,354.23" data-line="nan"></path>
    <path d="M 322.179,491.636 C 297.536,492.927 277.197,495.344 257.851,498.954 C 236.738,504.275 214.729,511.495 192.078,520.303 Q 169.81,530.524 151.855,540.19" data-line="nan"></path>
    <circle cx="785.1444653263653" cy="526.8424635675364" r="179.58895831557254" data-line="2.0"></circle>
    <path d="M 1002.173,905.616 L 860.311,691.131" data-line="3.0"></path>
    <path d="M 761.884,1019.727 L 22.509,1019.351" data-line="8.0"></path>
    <path d="M 542.487,491.533 L 322.179,491.636" data-line="8.0"></path>
    <path d="M 761.985,806.133 L 761.884,1019.727" data-line="9.0"></path>
    <path d="M 185.582,773.686 L 185.574,1019.986" data-line="10.0"></path>
    <path d="M 152.04222457479005,540.5252315595474 A 253.6196617974583,253.6196617974583 0 0,0 22.39177680564555,749.5409426430807" data-line="11.0"></path>
    <path d="M 22.495,749.546 L 22.509,1019.351" data-line="12.0"></path>
  </g>
</svg>
