<svg xmlns="http://www.w3.org/2000/svg" viewBox="-51.5 -51.5 1127.0 1127.0">
  <g fill="none" stroke="currentColor" stroke-linecap="round" stroke-linejoin="round">
    <path d="M 352.074,913.584 C 354.472,927.126 359.773,943.14 366.292,956.423 C 373.305,967.064 383.712,979.278 394.453,989.084 C 407.887,998.618 422.65,1006.394 434.318,1010.995 C 447.798,1014.805 463.023,1017.588 478.356,1019.16 C 496.083,1019.933 538.2,1019.864 555.379,1018.683 C 570.079,1016.42 583.882,1012.951 597.375,1008.15 C 607.313,1003.585 619.176,996.672 629.85,989.067 C 640.624,979.464 648.47,970.781 656.964,958.9 C 661.912,950.146 666.772,939.1 670.693,926.06 C 672.358,917.132 673.619,901.402 673.61,850.446" data-line="nan"/>
    <path d="M 828.998,90.194 C 805.505,75.548 706.977,7.688 699.78,5.051 L 687.598,4.31" data-line="nan"/>
    <path d="M 336.373,4.214 C 323.041,5.52 317.418,7.442 312.196,10.292 Q 220.729,74.947 195.189,91.279" data-line="nan"/>
    <path d="M 673.548,736.294 L 351.497,907.333" data-line="1.0"/>
    <path d="M 673.546,618.119 L 350.117,786.794" data-line="2.0"/>
    <path d="M 352.074,913.584 L 350.116,760.712" data-line="3.0"/>
    <path d="M 673.174,497.383 L 350.181,668.389" data-line="4.0"/>
    <path d="M 350.116,760.712 L 344.273,177.792" data-line="5.0"/>
    <path d="M 677.501,375.127 L 346.641,375.305" data-line="6.0"/>
    <path d="M 681.193,179.126 L 344.273,177.792" data-line="7.0"/>
    <path d="M 681.193,179.126 L 672.72,391.785" data-line="8.0"/>
    <path d="M 832.911,295.745 L 828.998,90.194" data-line="9.0"/>
    <path d="M 832.911,295.745 L 677.501,375.127" data-line="10.0"/>
    <path d="M 828.998,90.194 L 681.193,179.126" data-line="11.0"/>
    <path d="M 344.273,177.792 L 195.189,91.279" data-line="12.0"/>
    <path d="M 346.641,375.305 L 191.188,296.867" data-line="13.0"/>
    <path d="M 191.188,296.867 L 195.189,91.279" data-line="14.0"/>
    <path d="M 673.61,850.446 L 672.72,391.785" data-line="16.0"/>
    <path d="M 687.598,4.31 L 336.373,4.214" data-line="17.0"/>
  </g>
</svg>
