<svg xmlns="http://www.w3.org/2000/svg" viewBox="-51.5 -51.5 1127.0 1127.0">
  <g fill="none" stroke="currentColor" stroke-linecap="round" stroke-linejoin="round">
    <path d="M 538.34,585.53 C 503.02,591.05 472.2,593.14 439.27,592.87 C 406.22,589.62 371.5,583.04 341.28,574.63 C 304.03,561.24 272.64,547.19 234.95,526.93 C 199.95,505.1 166.97,481.55 134.18,455.21 C 104.81,429.1 63.88,388.86 37.3,358.13 L 15.59,330.52" data-line="nan"/>
    <path d="M 812.72,512.0 C 803.86,517.15 780.72,533.09 761.92,544.29 C 739.91,555.36 713.93,565.98 689.61,573.74 C 664.86,579.62 639.53,583.77 604.14,587.52" data-line="nan"/>
    <path d="M 1021.63,588.05 C 982.4,583.4 958.33,579.29 932.1,572.95 C 908.5,565.3 883.62,555.12 858.58,542.41 Q 842.29,532.47 812.72,512.0" data-line="nan"/>
    <path d="M 1021.63,588.05 Q 1023.58,598.5 1023.97,626.69" data-line="nan"/>
    <path d="M 1023.53,676.5 C 1021.66,704.68 1018.16,732.97 1012.83,763.2 C 1006.71,788.23 999.3,811.7 990.31,834.45 C 979.4,857.28 967.18,878.93 953.45,899.72 C 937.81,920.18 921.23,938.89 901.97,957.99 C 881.31,976.19 856.49,995.66 829.28,1014.31 L 812.14,1024.0" data-line="nan"/>
    <path d="M 812.14,1024.0 C 796.86,1015.43 765.52,993.9 740.62,974.11 C 717.88,953.44 697.8,932.42 680.56,911.56 C 665.02,889.77 651.27,867.02 639.68,844.34 C 629.16,819.62 621.1,795.89 614.55,771.21 C 608.63,740.68 604.66,711.58 601.97,678.85 L 601.02,646.59" data-line="nan"/>
    <path d="M 601.16,602.16 Q 601.77,595.48 604.14,587.52" data-line="nan"/>
    <path d="M 31.89,241.67 C 61.89,206.49 91.15,175.44 122.47,146.01 C 155.34,118.37 183.9,97.36 224.47,71.04 C 266.53,47.79 292.26,35.77 327.44,22.57 C 365.69,11.62 400.07,4.73 432.86,1.0 C 465.32,0.03 499.26,1.9 534.77,6.88 C 568.43,14.55 591.44,21.45 614.61,29.78 C 640.21,40.59 663.18,51.76 685.6,64.05 C 709.02,78.38 734.87,95.52 758.4,112.46 C 777.26,127.36 799.19,146.18 824.64,170.01 C 844.5,190.04 881.12,231.11 906.63,262.17 C 916.08,276.13 921.19,290.59 921.3,298.98 C 919.78,305.5 916.62,313.61 909.0,326.34 C 884.73,357.29 859.46,386.23 823.6,423.31 L 793.67,450.92" data-line="nan"/>
    <circle cx="460.1640278212444" cy="297.43573377756877" r="170.23456701282709" data-line="1.0"/>
    <path d="M 1023.97,626.69 L 1023.53,676.5" data-line="6.0"/>
    <path d="M 15.59,330.52 C -13.897745775210332,295.7487850575031 6.057388184023199,270.22347526441575 31.89,241.67" data-line="7.0"/>
    <path d="M 601.02,646.59 L 601.16,602.16" data-line="9.0"/>
  </g>
</svg>
