<svg xmlns="http://www.w3.org/2000/svg" viewBox="-51.5 -51.5 1127.0 1127.0">
  <g fill="none" stroke="currentColor" stroke-linecap="round" stroke-linejoin="round">
    <path d="M 1003.287,984.517 C 991.301,996.944 982.81,1003.128 974.874,1007.535 C 958.108,1013.299 948.407,1015.019 938.65,1015.622" data-line="nan"/>
    <path d="M 95.9,1015.903 C 71.976,1014.487 55.348,1010.088 46.814,1006.253 C 38.785,1001.336 31.692,995.85 23.678,987.765 C 17.974,980.276 13.065,972.093 9.408,964.014 C 6.635,955.33 4.22,939.762 4.044,907.521" data-line="nan"/>
    <path d="M 4.011,93.435 C 4.211,83.479 5.628,73.373 7.937,64.298 C 12.064,53.512 16.169,45.805 21.761,37.963 C 27.045,32.061 35.141,24.833 42.386,19.993 C 52.21,14.979 68.558,9.974 82.398,8.305 L 112.811,8.185" data-line="nan"/>
    <path d="M 936.853,8.34 C 947.078,8.793 956.931,10.308 974.318,16.027 C 983.152,20.787 989.498,25.377 996.676,31.746 C 1002.653,38.56 1007.805,45.921 1011.748,53.366 C 1017.118,68.397 1019.788,83.961 1019.936,112.243" data-line="nan"/>
    <path d="M 1019.807,936.576 C 1018.512,950.246 1015.398,961.935 1010.278,973.685 Q 1006.443,980.576 1003.287,984.517" data-line="nan"/>
    <circle cx="236.39264749819074" cy="188.2605512768431" r="63.1722070114802" data-line="2.0"/>
    <circle cx="511.38009420366035" cy="188.351962472699" r="62.8875409899136" data-line="4.0"/>
    <path d="M 540.559,244.041 L 546.014,241.437" data-line="5.0"/>
    <circle cx="786.3330891905248" cy="188.3638242030079" r="62.76295214183051" data-line="7.0"/>
    <path d="M 118.47168590411172,754.4224525134605 A 393.490527272664,393.490527272664 0 0,1 905.431497206489,754.0096740573607" data-line="9.0"/>
    <circle cx="511.67973998602787" cy="750.6581555210778" r="51.967763643899815" data-line="10.0"/>
    <path d="M 938.65,1015.622 L 95.9,1015.903" data-line="10.0"/>
    <path d="M 710.212,529.185 L 541.289,703.797" data-line="11.0"/>
    <path d="M 4.044,907.521 L 4.011,93.435" data-line="13.0"/>
    <path d="M 1019.936,112.243 L 1019.807,936.576" data-line="14.0"/>
    <path d="M 112.811,8.185 L 936.853,8.34" data-line="15.0"/>
  </g>
</svg>
