<svg xmlns="http://www.w3.org/2000/svg" viewBox="-51.5 -51.5 1127.0 1127.0">
  <g fill="none" stroke="currentColor" stroke-linecap="round" stroke-linejoin="round">
    <path d="M 364.286,501.226 C 371.473,514.125 374.042,521.828 375.849,534.284 C 374.536,545.022 370.552,555.136 366.934,560.844 C 339.752,589.228 332.702,595.083 327.022,598.041 C 318.71,600.365 307.742,601.338 298.482,600.105 C 290.824,597.799 280.802,592.066 273.36,585.576" data-line="nan"/>
    <path d="M 349.325,96.758 C 343.989,84.742 341.933,74.948 341.896,65.732 C 344.196,56.095 346.386,51.185 352.848,41.799 C 370.971,22.587 380.429,14.254 390.072,8.427 C 398.906,5.211 405.75,4.119 414.41,4.395 C 424.056,6.642 431.862,10.15 438.084,14.447 L 446.259,21.756" data-line="nan"/>
    <path d="M 567.494,1020.0 C 567.142,961.347 564.19,946.568 558.934,936.485 C 554.788,931.712 549.888,927.613 544.725,924.517 C 534.519,921.19 513.943,919.554 486.046,919.845" data-line="nan"/>
    <path d="M 513.943,919.554 C 509.864,896.037 509.333,869.996 508.315,860.051 C 505.296,849.825 498.931,840.144 489.448,832.585 C 484.288,830.151 474.339,827.829 415.738,827.348" data-line="nan"/>
    <path d="M 108.359,827.38 C 96.937,829.119 87.66,833.428 80.275,839.747 C 75.306,847.251 73.181,853.298 71.837,861.533 Q 71.057,899.082 65.938,919.396" data-line="nan"/>
    <path d="M 978.292,833.877 C 995.067,850.614 998.875,855.291 1003.375,862.853 C 1006.292,870.142 1008.784,880.083 1009.328,894.649 C 1005.854,910.556 1003.051,917.213 998.178,925.222 C 991.693,932.806 984.176,939.372 968.882,948.16 C 956.134,951.832 944.142,952.365 933.808,950.545 C 921.644,945.546 914.47,940.617 907.342,933.908 L 861.197,884.893" data-line="nan"/>
    <path d="M 76.594,389.584 C 71.11,383.103 66.714,376.127 63.335,367.782 C 61.355,360.201 60.98,352.798 61.729,347.059 Q 64.481,339.24 68.852,331.308" data-line="nan"/>
    <path d="M 68.852,331.308 C 77.671,321.353 103.45,296.518 115.124,289.989 C 126.981,287.497 131.718,287.41 141.433,289.167 C 153.139,294.656 165.091,302.866 184.141,323.287" data-line="nan"/>
    <path d="M 641.796,216.353 C 649.248,226.351 653.74,237.583 655.025,243.718 Q 655.447,251.546 653.186,263.698" data-line="nan"/>
    <path d="M 653.186,263.698 C 649.32,271.997 641.201,281.633 615.309,307.842 C 610.482,311.566 605.247,314.309 594.476,317.514 C 582.306,317.856 570.541,314.384 557.067,307.391" data-line="nan"/>
    <path d="M 90.471,919.993 C 65.938,919.396 45.836,921.62 36.103,925.195 C 31.421,928.129 23.336,936.014 17.911,945.557 C 16.309,950.399 14.824,959.895 14.493,1019.823" data-line="nan"/>
    <path d="M 484.46,374.812 L 978.292,833.877" data-line="0.0"/>
    <path d="M 484.46,374.812 L 432.033,427.465" data-line="1.0"/>
    <path d="M 184.141,323.287 L 364.286,501.226" data-line="3.0"/>
    <path d="M 557.067,307.391 L 349.325,96.758" data-line="4.0"/>
    <path d="M 557.067,307.391 L 432.033,427.465" data-line="5.0"/>
    <path d="M 484.46,374.812 L 364.286,501.226" data-line="6.0"/>
    <path d="M 360.854,112.477 L 165.091,302.866" data-line="7.0"/>
    <path d="M 415.738,827.348 L 108.359,827.38" data-line="14.0"/>
    <path d="M 567.494,1020.0 L 14.493,1019.823" data-line="17.0"/>
    <path d="M 273.36,585.576 L 76.594,389.584" data-line="17.0"/>
    <path d="M 446.259,21.756 L 641.796,216.353" data-line="20.0"/>
    <path d="M 861.197,884.893 L 432.033,427.465" data-line="21.0"/>
    <path d="M 486.046,919.845 L 90.471,919.993" data-line="26.0"/>
  </g>
</svg>
