<svg xmlns="http://www.w3.org/2000/svg" viewBox="-51.5 -51.5 1127.0 1127.0">
  <g fill="none" stroke="currentColor" stroke-linecap="round" stroke-linejoin="round">
    <path d="M 881.379,274.095 C 852.333,276.093 844.58,274.352 833.131,269.798 C 821.977,263.149 811.009,255.231 733.949,193.781" data-line="nan"></path>
    <path d="M 472.953,195.621 C 416.166,195.815 385.645,197.017 367.119,200.0 C 346.432,206.828 318.01,221.001 267.51,251.557 Q 214.631,285.069 160.491,321.566" data-line="nan"></path>
    <path d="M 811.788,653.615 C 808.674,632.706 805.978,624.011 801.619,615.284 Q 787.352,596.453 751.376,555.011" data-line="nan"></path>
    <path d="M 509.545,807.167 C 500.14,837.081 497.321,843.038 489.531,853.92 C 479.243,863.045 473.576,866.584 462.374,871.362 C 451.358,873.573 440.452,873.633 429.396,871.5 C 423.859,869.586 412.928,863.914 396.786,851.215 L 369.509,824.907" data-line="nan"></path>
    <path d="M 397.06,444.586 C 378.339,458.889 368.029,464.283 353.217,468.468 C 343.562,469.251 335.342,468.579 326.9,466.415 C 320.075,463.616 312.57,459.356 305.089,453.705 C 298.963,447.758 293.504,440.701 286.907,428.542 C 282.751,415.091 281.605,403.343 283.218,390.405 C 288.647,375.787 295.666,364.297 303.37,354.993 L 347.032,312.324" data-line="nan"></path>
    <path d="M 1019.2,705.851 L 1018.707,274.292" data-line="1.0"></path>
    <path d="M 1019.2,705.851 L 866.366,705.729" data-line="2.0"></path>
    <path d="M 866.366,705.729 L 866.056,645.865" data-line="3.0"></path>
    <path d="M 866.056,645.865 L 866.143,275.143" data-line="4.0"></path>
    <path d="M 160.125,273.293 L 4.61,273.69" data-line="5.0"></path>
    <path d="M 159.979,704.446 L 160.125,273.293" data-line="6.0"></path>
    <path d="M 159.979,704.446 L 4.353,703.48" data-line="7.0"></path>
    <path d="M 4.61,273.69 L 4.353,703.48" data-line="8.0"></path>
    <path d="M 546.682,322.967 L 397.06,444.586" data-line="10.0"></path>
    <path d="M 811.1345779870456,653.5511211298244 A 62.899160469814134,62.899160469814134 0 0,1 727.4495455389743,706.6913176378754" data-line="12.0"></path>
    <path d="M 578.14,538.612 L 724.383,705.193" data-line="13.0"></path>
    <path d="M 722.9692309885864,708.4984741320592 A 61.71226597825631,61.71226597825631 0 0,1 634.8596659439845,770.7153957416824" data-line="14.0"></path>
    <path d="M 492.706,618.097 L 624.999,762.024" data-line="15.0"></path>
    <path d="M 622.2305723750935,770.0360358055503 A 58.61564931005542,58.61564931005542 0 0,1 516.8479539892111,810.6640960538607" data-line="16.0"></path>
    <path d="M 402.387,691.607 L 510.132,805.217" data-line="17.0"></path>
    <path d="M 1018.707,274.292 L 881.379,274.095" data-line="19.0"></path>
    <path d="M 866.032,653.943 L 811.788,653.615" data-line="20.0"></path>
    <path d="M 734.1300400727616,193.55037324678946 A 206.59790642134183,206.59790642134183 0 0,0 475.641027731765,196.2392709751822" data-line="21.0"></path>
    <path d="M 347.032,312.324 L 466.724,201.257" data-line="23.0"></path>
    <path d="M 751.376,555.011 L 546.682,322.967" data-line="23.0"></path>
    <path d="M 369.509,824.907 L 160.604,618.388" data-line="24.0"></path>
  </g>
</svg>
