<svg xmlns="http://www.w3.org/2000/svg" viewBox="-51.5 -51.5 1127.0 1127.0">
  <g fill="none" stroke="currentColor" stroke-linecap="round" stroke-linejoin="round">
    <path d="M 931.767,412.795 C 904.657,399.282 893.681,395.706 876.795,392.654 Q 843.485,390.972 744.789,390.791" data-line="nan"/>
    <path d="M 281.101,390.748 C 174.956,391.596 147.25,392.854 136.241,394.583 Q 125.253,397.589 102.014,407.534" data-line="nan"/>
    <path d="M 931.767,412.795 C 947.156,432.896 954.085,444.08 959.204,455.283 C 964.153,472.208 965.825,483.346 966.435,494.532 L 966.471,583.909" data-line="nan"/>
    <path d="M 966.317,907.932 C 965.811,924.704 964.242,935.953 961.186,947.318 C 956.395,959.05 949.964,970.525 941.726,981.54 C 931.586,991.962 920.452,1000.749 903.445,1010.243 C 892.045,1014.466 880.761,1017.231 858.371,1019.559 L 813.69,1019.982" data-line="nan"/>
    <path d="M 171.231,1019.864 C 154.482,1019.347 143.335,1017.927 132.248,1015.256 C 121.262,1011.254 110.189,1005.665 99.108,998.284 C 88.362,988.931 78.808,978.183 68.098,961.274 C 63.296,950.116 60.095,939.051 57.895,922.767 L 57.636,872.55" data-line="nan"/>
    <circle cx="514.2853233254297" cy="709.4840326151779" r="176.7368110606941" data-line="0.0"/>
    <path d="M 794.331,390.712 L 793.971,279.988" data-line="5.0"/>
    <path d="M 813.69,1019.982 L 171.231,1019.864" data-line="7.0"/>
    <path d="M 744.789,390.791 L 281.101,390.748" data-line="8.0"/>
    <path d="M 57.636,872.55 L 57.508,498.248" data-line="9.0"/>
    <path d="M 57.461545331449244,498.24927113903846 A 107.27197779134312,107.27197779134312 0 0,1 102.35690256660453,408.014227415489" data-line="10.0"/>
    <path d="M 795.5483258465897,279.946314137014 A 284.1672003124775,284.1672003124775 0 0,0 227.36162203393081,282.2032032540852" data-line="11.0"/>
    <path d="M 966.471,583.909 L 966.317,907.932" data-line="11.0"/>
    <path d="M 228.974,282.233 L 228.918,391.101" data-line="12.0"/>
  </g>
</svg>
