<svg xmlns="http://www.w3.org/2000/svg" viewBox="-51.5 -51.5 1127.0 1127.0">
  <g fill="none" stroke="currentColor" stroke-linecap="round" stroke-linejoin="round">
    <path d="M 974.354,656.195 C 932.883,688.072 913.081,701.412 880.912,718.236 C 848.769,731.743 805.707,746.167 757.719,758.701 Q 709.674,768.054 656.214,775.113" data-line="nan"/>
    <path d="M 974.015,419.803 C 935.008,451.374 914.673,465.721 898.553,474.769 C 882.416,482.669 844.849,497.68 796.936,512.146 C 743.444,524.418 690.059,533.487 631.345,540.345" data-line="nan"/>
    <path d="M 974.382,189.082 C 910.955,230.75 879.115,246.404 846.563,259.205 C 804.114,272.488 761.323,283.102 713.251,292.268 L 665.116,298.96" data-line="nan"/>
    <path d="M 48.6,845.765 C 49.305,866.846 51.302,877.396 55.361,887.843 C 61.852,898.551 70.543,909.231 85.793,923.428 C 101.535,934.773 117.624,944.304 165.789,966.927 C 186.997,974.748 213.743,982.979 245.526,991.151 C 277.476,997.948 314.901,1004.559 352.105,1009.907" data-line="nan"/>
    <path d="M 709.485,1004.113 C 746.804,997.684 784.032,989.492 816.208,980.826 C 848.263,970.311 875.072,959.732 896.428,949.599 C 923.228,933.647 939.488,921.676 954.396,907.31 C 962.92,896.359 969.2,885.319 973.199,874.416 Q 975.258,858.217 975.354,778.19" data-line="nan"/>
    <path d="M 975.292,227.198 C 974.382,189.082 975.226,157.522 974.742,146.687 C 972.286,137.073 969.18,129.757 963.86,120.96 C 957.359,112.404 945.266,100.534 933.878,91.532 C 919.244,81.706 900.806,71.53 879.525,61.797 C 858.679,53.682 837.288,46.392 810.743,38.67" data-line="nan"/>
    <path d="M 810.743,38.67 C 778.611,30.857 744.251,24.011 706.303,18.018 C 666.517,12.899 626.35,8.838 581.136,5.553 C 556.971,4.423 511.782,4.0 450.278,5.062 C 402.847,8.056 354.129,12.678 315.769,17.852 C 275.0,24.727 242.909,31.44 214.632,38.478" data-line="nan"/>
    <path d="M 214.632,38.478 C 188.355,46.101 162.819,54.743 141.101,63.374 C 120.06,73.317 101.182,84.22 84.169,96.243 C 71.15,107.728 62.08,118.109 53.824,131.465 C 50.826,140.013 48.995,149.087 49.816,186.072 L 48.632,251.447" data-line="nan"/>
    <path d="M 289.742,526.771 C 247.009,518.147 209.631,508.514 172.532,496.498 C 140.248,483.438 118.943,472.709 97.486,459.092 L 49.447,418.467" data-line="nan"/>
    <path d="M 291.538,289.409 C 248.917,280.536 211.615,270.789 174.257,258.967 C 142.042,246.393 120.661,236.299 99.645,224.232 Q 87.127,215.547 49.816,186.072" data-line="nan"/>
    <path d="M 48.62,694.905 L 48.6,845.765" data-line="1.0"/>
    <path d="M 656.214,775.113 C 512.1942096539291,789.4140040300658 367.997115431296,784.5125502301588 224.015,747.907" data-line="4.0"/>
    <path d="M 224.1835021154056,747.1214848598764 A 362.2159497619291,362.2159497619291 0 0,1 49.18987679799815,654.1461307015268" data-line="5.0"/>
    <path d="M 352.105,1009.907 C 471.40046812995166,1025.137360545852 590.2770957398532,1022.9821272793056 709.485,1004.113" data-line="7.0"/>
    <path d="M 975.354,778.19 L 975.292,227.198" data-line="9.0"/>
    <path d="M 48.632,251.447 L 48.62,694.905" data-line="13.0"/>
    <path d="M 631.345,540.345 C 517.4680985295951,550.8527566972404 403.6644807027522,546.5719294540381 289.742,526.771" data-line="14.0"/>
    <path d="M 665.116,298.96 C 540.620334189207,311.9377530157539 416.06662239367535,310.6702193023119 291.538,289.409" data-line="16.0"/>
  </g>
</svg>
