<svg xmlns="http://www.w3.org/2000/svg" viewBox="-51.5 -51.5 1127.0 1127.0">
  <g fill="none" stroke="currentColor" stroke-linecap="round" stroke-linejoin="round">
    <path d="M 526.39,733.843 C 541.111,730.944 550.031,727.589 558.788,723.146 C 571.916,714.304 609.864,682.906 622.9,674.645 C 631.657,670.46 644.453,665.971 657.354,663.23 C 670.3,661.947 712.609,660.111 734.109,656.499 C 753.045,648.311 761.044,644.051 770.134,637.881 C 778.821,630.326 786.455,621.813 792.61,612.992 C 797.52,604.061 802.541,590.921 806.023,573.626 C 810.131,521.837 812.964,508.907 817.468,496.011 C 823.85,483.191 832.479,470.215 867.647,427.187 C 875.983,414.175 879.91,405.425 883.809,392.401 C 885.765,379.384 886.182,366.403 884.913,353.465 C 882.979,344.859 878.387,331.901 873.832,323.284 C 864.49,310.307 832.05,271.811 823.506,258.836 C 816.94,245.677 812.419,232.73 808.656,215.343 C 804.074,163.53 800.671,146.345 795.814,133.329 C 791.126,124.628 785.028,116.024 777.763,108.057 C 769.664,101.085 756.241,92.443 747.536,88.279 C 734.76,83.808 713.352,80.118 678.836,79.602 C 665.725,78.446 648.545,74.823 635.527,70.493 C 622.311,64.437 609.208,56.568 596.561,47.067 C 566.365,22.114 553.548,13.882 544.721,9.919 C 531.976,6.239 519.134,4.379 508.566,4.022 C 496.867,5.247 486.387,7.725 476.67,11.116 C 465.855,16.579 455.155,24.023 429.23,46.591 C 415.73,57.098 401.228,66.348 387.955,72.734 C 373.883,76.726 352.659,80.024 307.474,81.386 C 289.82,83.831 278.786,87.073 266.715,92.151 C 254.653,99.817 246.073,107.211 238.174,116.075 C 231.192,125.808 224.971,137.312 221.68,145.596 C 218.433,161.929 216.127,198.449 214.244,215.739 C 210.602,233.247 206.459,245.684 201.623,256.251 C 194.13,268.342 185.347,279.578 161.687,306.817 C 149.305,324.81 143.455,337.135 139.993,348.474 C 138.144,360.482 137.816,373.07 139.014,388.191 C 141.137,398.999 143.67,406.943 148.236,416.642 C 159.638,433.316 182.171,459.088 192.32,471.842 C 199.608,483.144 205.762,495.473 210.872,510.689 C 213.677,523.64 218.767,576.071 222.713,593.871 C 226.578,604.101 232.13,614.596 238.465,623.424 C 245.712,631.323 253.49,637.995 262.897,644.028 C 274.147,649.62 290.278,655.971 313.717,659.571 C 339.713,660.288 356.948,661.839 372.282,664.737 C 385.491,668.728 398.202,674.123 408.565,680.152 C 421.972,689.707 457.945,717.672 472.212,726.205 C 484.517,730.846 496.786,733.459 526.39,733.843" data-line="nan"/>
    <path d="M 836.174,951.872 L 734.109,656.499" data-line="1.0"/>
    <path d="M 836.174,951.872 L 697.104,907.499" data-line="2.0"/>
    <path d="M 697.104,907.499 L 610.452,1019.175" data-line="3.0"/>
    <path d="M 610.452,1019.175 L 513.571,758.738" data-line="4.0"/>
    <path d="M 513.571,758.738 L 414.222,1020.0" data-line="5.0"/>
    <path d="M 414.222,1020.0 L 328.331,907.74" data-line="6.0"/>
    <path d="M 328.331,907.74 L 185.7,953.726" data-line="7.0"/>
    <path d="M 290.278,655.971 L 185.7,953.726" data-line="8.0"/>
    <path d="M 675.084,265.288 L 454.647,488.83" data-line="24.0"/>
    <path d="M 345.493,377.223 L 454.647,488.83" data-line="25.0"/>
  </g>
</svg>
