<svg xmlns="http://www.w3.org/2000/svg" viewBox="-51.5 -51.5 1127.0 1127.0">
  <g fill="none" stroke="currentColor" stroke-linecap="round" stroke-linejoin="round">
    <path d="M 547.368,35.636 C 520.625,25.119 493.517,17.011 465.98,10.951 C 436.409,6.64 402.904,4.248 375.748,4.208 Q 344.915,6.602 317.685,10.834" data-line="nan"/>
    <path d="M 266.72,743.268 C 303.637,754.361 341.039,761.717 375.248,765.312 C 393.201,765.933 413.33,765.554 452.247,761.886 C 490.317,754.589 525.528,743.97 557.496,730.701" data-line="nan"/>
    <path d="M 658.6873394476547,660.4746655667498 A 379.4762323782667,379.4762323782667 0 0,0 547.3424020180736,35.69585166430193" data-line="0.0"/>
    <path d="M 653.197,665.247 L 702.324,611.414" data-line="1.0"/>
    <path d="M 658.08,662.976 L 1013.165,1020.0" data-line="2.0"/>
    <path d="M 317.5686801001676,10.239188015924299 A 379.7619790731282,379.7619790731282 0 0,0 267.11533187911294,742.1167457994569" data-line="4.0"/>
    <path d="M 557.4916430610717,730.6917893154267 A 375.9470210113281,375.9470210113281 0 0,0 653.4413302989503,665.508418627651" data-line="6.0"/>
  </g>
</svg>
