<svg xmlns="http://www.w3.org/2000/svg" viewBox="-51.5 -51.5 1127.0 1127.0">
  <g fill="none" stroke="currentColor" stroke-linecap="round" stroke-linejoin="round">
    <path d="M 381.25,0.0 C 365.3,9.27 323.65,37.97 289.81,58.13 C 248.06,79.01 203.44,97.16 179.11,105.37 C 156.2,112.08 112.12,122.3 69.5,129.19 L 5.81,135.94" data-line="nan"/>
    <path d="M 757.29,136.9 C 739.23,134.19 686.68,128.52 647.33,121.92 C 599.49,110.63 555.66,96.67 511.0,78.58 C 467.75,56.93 436.33,38.08 381.25,0.0" data-line="nan"/>
    <path d="M 740.96,454.45 C 750.65,400.36 757.34,346.82 760.86,292.2 L 761.52,235.79" data-line="nan"/>
    <path d="M 761.14,165.62 Q 760.4,152.08 757.29,136.9" data-line="nan"/>
    <path d="M 1.53,150.27 Q 0.19,170.06 0.02,209.04" data-line="nan"/>
    <path d="M 0.69,269.57 C 3.29,321.99 9.35,380.8 18.46,437.4 C 28.09,481.18 41.51,527.36 56.27,567.47 C 76.27,611.61 97.34,650.84 121.83,689.56 C 151.01,728.98 183.33,766.62 216.18,800.05 C 253.53,833.52 298.55,869.09 321.39,885.5 C 352.7,906.17 366.31,914.69 380.21,921.6" data-line="nan"/>
    <path d="M 1006.49,718.01 C 992.83,711.2 978.79,707.86 959.19,706.97 L 912.27,706.92" data-line="nan"/>
    <path d="M 660.77,706.99 C 611.15,707.96 600.06,710.34 588.35,715.36" data-line="nan"/>
    <path d="M 1006.49,718.01 C 1017.74,733.77 1020.32,739.42 1022.81,747.95 Q 1023.96,759.2 1023.98,804.24" data-line="nan"/>
    <path d="M 937.0,649.59 C 935.93,634.13 933.0,617.38 928.95,604.02 C 922.78,589.71 916.04,577.88 907.05,565.46 C 895.22,552.51 883.81,542.58 870.85,533.46 C 856.92,525.78 842.18,519.69 826.43,515.17 C 811.34,512.76 795.16,512.0 779.0,513.09 C 765.05,515.21 751.12,518.79 737.19,523.94 C 723.15,530.89 709.26,539.82 698.03,548.89 C 686.95,559.98 677.83,571.28 670.48,582.52 C 664.69,593.57 660.06,604.77 656.58,615.97 C 653.76,629.87 652.36,649.4 652.3,707.07" data-line="nan"/>
    <path d="M 623.23,1023.93 C 609.17,1022.96 598.05,1019.59 586.89,1013.06 C 576.66,1002.93 571.26,994.41 567.23,983.21 Q 566.12,975.0 565.99,949.69" data-line="nan"/>
    <path d="M 566.08,755.49 C 567.97,744.43 572.61,733.41 578.42,725.1 L 588.35,715.36" data-line="nan"/>
    <path d="M 380.21,921.6 L 389.67,916.61" data-line="2.0"/>
    <path d="M 389.67,916.61 L 391.68,915.82" data-line="3.0"/>
    <path d="M 391.68,915.82 L 501.94,837.83" data-line="4.0"/>
    <path d="M 5.81,135.94 L 1.53,150.27" data-line="6.0"/>
    <path d="M 761.52,235.79 L 761.14,165.62" data-line="11.0"/>
    <path d="M 0.02,209.04 L 0.69,269.57" data-line="14.0"/>
    <circle cx="796.1091268461281" cy="867.519324936271" r="89.06468161282436" data-line="16.0"/>
    <path d="M 912.27,706.92 L 660.77,706.99" data-line="17.0"/>
    <path d="M 746.05,793.88 L 749.0,791.78" data-line="17.0"/>
    <path d="M 1023.98,804.24 L 1023.9,967.52" data-line="20.0"/>
    <path d="M 937.23,706.88 L 937.0,649.59" data-line="21.0"/>
    <path d="M 1023.9,967.52 C 1029.6850159806218,1007.4299442669313 976.1641716865788,1033.3258508252043 946.99,1023.99" data-line="23.0"/>
    <path d="M 565.99,949.69 L 566.08,755.49" data-line="24.0"/>
    <path d="M 946.99,1023.99 L 623.23,1023.93" data-line="24.0"/>
  </g>
</svg>
