<svg xmlns="http://www.w3.org/2000/svg" viewBox="-47.5 -47.5 1121.0 1119.0" fill="none">
<path d="M538.755 62.2709L536.293 61.4243L533.552 60.6422L529.73 59.6081L526.006 58.8351L522.883 58.3009L519.584 57.9481L516.868 57.7748L513.534 57.7002L510.359 57.7808L506.652 57.9965L503.001 58.3866L499.767 58.8572L496.525 59.467L493.755 60.108L490.568 60.8931L487.724 61.7549L484.473 62.8998L481.099 64.3743L477.341 66.1694L473.61 68.1841L470.333 70.1091L467.079 72.3597L463.829 74.9812L460.307 78.0865L456.972 81.3752L454.247 84.2859L451.77 87.2863L449.737 89.9965L447.597 93.0735L445.748 95.9228L443.808 99.0613L442.069 101.984L440.236 105.147L438.637 107.957L436.962 110.922L435.48 113.556L433.78 116.58L432.183 119.424L430.31 122.753L428.366 126.206L426.24 129.979L424.105 133.758L422.266 137.017L420.398 140.321L418.731 143.269L416.796 146.682L414.748 150.297L412.239 154.718L409.699 159.192L407.248 163.51L405.389 166.78L403.553 170.011L402.048 172.653L400.239 175.829L398.751 178.435L396.927 181.632L395.39 184.326L393.612 187.441L392.144 190.008L390.375 193.098L388.749 195.935L386.833 199.283L384.872 202.711L382.736 206.442L380.576 210.213L378.718 213.449L376.828 216.739L375.166 219.628L373.251 222.96L371.286 226.381L369.143 230.107L366.977 233.872L365.111 237.109L363.216 240.397L361.549 243.286L359.632 246.615L357.664 250.031L355.516 253.753L353.346 257.513L351.472 260.751L349.573 264.036L347.878 266.962L345.985 270.232L344.268 273.198L342.347 276.518L340.282 280.087L337.741 284.482L335.166 288.931L332.679 293.226L330.716 296.609L328.741 300.014L326.704 303.524L324.494 307.335L322.323 311.081L320.525 314.176L318.579 317.525L316.526 321.054L313.914 325.553L311.312 330.029L308.818 334.326L306.853 337.701L304.946 340.982L303.231 343.923L301.258 347.315L299.167 350.907L296.621 355.292L294.038 359.735L291.546 364.022L289.652 367.276L287.789 370.486L286.259 373.115L284.424 376.273L282.89 378.903L281.04 382.079L279.355 384.966L277.369 388.376L275.279 391.967L272.725 396.361L270.141 400.807L267.644 405.101L265.679 408.478L263.77 411.758L262.055 414.702L260.082 418.095L257.993 421.688L255.447 426.07L252.866 430.513L250.375 434.799L248.407 438.185L246.431 441.588L244.393 445.098L242.183 448.904L240.013 452.645L238.215 455.742L236.27 459.093L234.255 462.566L232.029 466.405L229.856 470.154L228.062 473.25L226.12 476.6L224.111 480.068L221.886 483.913L219.712 487.669L217.921 490.765L216.057 493.986L214.387 496.872L212.414 500.286L210.372 503.821L208.207 507.567L206.054 511.295L204.265 514.392L202.402 517.616L200.756 520.468L198.825 523.81L196.857 527.216L194.707 530.937L192.538 534.692L190.663 537.939L188.764 541.226L187.067 544.164L185.104 547.561L183.025 551.158L180.484 555.558L177.912 560.009L175.428 564.309L173.472 567.694L171.503 571.103L169.474 574.616L167.269 578.432L165.103 582.182L163.312 585.281L161.375 588.634L159.334 592.168L156.732 596.673L154.141 601.156L151.656 605.459L149.703 608.84L147.804 612.127L146.101 615.075L144.138 618.473L142.06 622.072L139.524 626.462L136.954 630.911L134.475 635.205L132.515 638.596L130.548 642.003L128.518 645.518L126.318 649.328L124.156 653.071L122.365 656.173L120.427 659.529L118.419 663.007L116.201 666.849L114.036 670.599L112.247 673.699L110.31 677.053L108.305 680.526L106.085 684.371L103.917 688.127L102.128 691.226L100.267 694.451L98.6207 697.304L96.6916 700.647L94.7262 704.054L92.5785 707.776L90.4115 711.531L88.5369 714.781L86.5675 718.194L84.5074 721.764L81.9182 726.251L79.332 730.735L76.8476 735.043L74.8983 738.422L73.0025 741.711L71.3042 744.656L69.3439 748.056L67.2687 751.655L64.7349 756.051L62.1679 760.505L59.6905 764.802L57.8108 768.063L55.9211 771.341L54.0222 774.637L51.7787 778.531L49.5654 782.373L47.7119 785.59L45.8564 788.814L44.3386 791.451L42.5123 794.621L40.9965 797.253L39.1632 800.434L37.5223 803.281L35.5963 806.626L33.6319 810.039L31.4872 813.763L29.3243 817.523L27.4547 820.77L25.5619 824.059L23.8959 826.955L22.0152 830.226L20.4328 832.978L18.7073 835.985L17.252 838.534L15.4963 841.646L13.8847 844.557L12.0896 847.859L10.5718 850.739L9.00655 853.848L7.53707 857.115L5.83477 861.39L4.19496 866.335L2.77083 871.318L1.82948 875.709L1.31043 879.01L1.04435 882.238L1 885.528L1.10683 889.306L1.45254 893.222L2.01694 897.113L2.9845 901.567L4.46406 906.642L6.4526 912.2L8.67496 917.483L11.0576 922.177L13.5662 926.406L16.3671 930.503L19.4159 934.487L22.3135 937.934L25.4127 941.198L28.259 943.891L31.47 946.679L34.3294 948.951L37.4205 951.207L40.2486 953.078L43.3962 954.97L46.3553 956.593L49.512 958.198L52.3421 959.496L55.4252 960.771L58.6988 961.891L62.3211 963.034L66.0724 964.026L69.3198 964.783L72.6568 965.365L75.4426 965.751L78.5892 966.066L81.2641 966.233L84.4258 966.301L87.2277 966.275L90.4186 966.206L93.1912 966.147L96.3126 966.114L99.0853 966.108L102.207 966.107H104.979L108.101 966.106L110.873 966.105H113.995L116.767 966.104H119.889L122.661 966.103H125.783L128.556 966.102L131.677 966.101H134.45L137.571 966.1H140.344L143.465 966.099H146.238L149.359 966.098L152.132 966.097H155.253L158.026 966.096H161.146L163.92 966.095H167.04L169.814 966.094L172.934 966.093H175.708L178.828 966.092H181.602L184.722 966.091H187.495L190.616 966.09L193.389 966.089H196.51L199.283 966.088H202.404L205.177 966.087H208.299L211.071 966.086L214.193 966.085H216.965L220.087 966.084H222.859L225.981 966.083H228.753L231.875 966.082L234.647 966.081H237.769L240.541 966.08H243.663L246.435 966.079H249.557L252.33 966.078L255.451 966.077H258.224L261.345 966.076H264.118L267.239 966.075H270.012L273.133 966.074L275.906 966.073H279.027L281.8 966.072H284.92L287.694 966.071H290.814L293.588 966.07L296.708 966.069H299.482L302.602 966.068H305.376L308.496 966.067H311.269L314.39 966.066L317.163 966.065H320.284L323.057 966.064H326.178L328.951 966.063H332.072L334.845 966.062L337.967 966.061H340.739L343.861 966.06H346.633L349.755 966.059H352.527L355.649 966.058L358.421 966.057H361.543L364.315 966.056H367.437L370.209 966.055H373.331L376.103 966.054L379.225 966.053H381.998L385.119 966.052H387.892L391.013 966.051H393.786L396.907 966.05L399.68 966.049H402.8L405.574 966.048H408.694L411.468 966.047H414.588L417.362 966.046L420.482 966.045H423.256L426.376 966.044H429.15L432.27 966.043H435.043L438.164 966.042L440.937 966.041H444.058L446.831 966.04H449.952L452.725 966.039H455.846L458.619 966.038L461.741 966.037H464.513L467.635 966.036H470.407L473.529 966.035H476.301L479.423 966.034L482.195 966.032H485.317L488.089 966.032H491.211L493.983 966.03H497.105L499.877 966.029L502.999 966.029H505.772L508.893 966.027H511.666L514.787 966.026H517.56L520.681 966.025L523.454 966.024H526.574L529.348 966.023H532.468L535.242 966.022H538.362L541.136 966.021L544.256 966.02H547.03L550.15 966.019H552.924L556.044 966.018H558.817L561.938 966.017L564.711 966.016H567.832L570.605 966.015H573.726L576.499 966.014H579.62L582.393 966.013L585.515 966.012H588.287L591.409 966.011H594.181L597.303 966.01H600.075L603.197 966.009L605.969 966.008H609.091L611.863 966.007H614.985L617.757 966.006H620.879L623.651 966.005L626.773 966.004H629.546L632.667 966.003H635.44L638.561 966.002H641.334L644.455 966.001L647.228 966H650.348L653.122 965.999H656.242L659.016 965.998H662.136L664.91 965.997L668.03 965.996H670.804L673.924 965.995H676.697L679.818 965.994H682.591L685.712 965.993L688.485 965.992H691.606L694.379 965.991H697.5L700.273 965.99H703.394L706.167 965.989L709.289 965.988H712.061L715.183 965.987H717.955L721.077 965.986H723.849L726.971 965.985L729.743 965.984H732.865L735.637 965.983H738.759L741.531 965.982H744.653L747.425 965.981L750.547 965.98H753.32L756.441 965.979H759.214L762.335 965.978H765.108L768.229 965.977L771.002 965.976H774.122L776.896 965.975H780.016L782.79 965.974H785.91L788.684 965.973L791.804 965.972H794.578L797.698 965.971H800.471L803.592 965.97H806.365L809.486 965.969L812.259 965.968H815.38L818.153 965.967H821.274L824.047 965.966H827.168L829.941 965.965L833.062 965.964H835.835L838.957 965.963H841.729L844.851 965.962H847.623L850.745 965.961L853.517 965.96H856.639L859.411 965.959H862.533L865.305 965.958H868.427L871.199 965.957L874.321 965.956H877.094L880.215 965.955H882.988L886.109 965.954H888.882L892.002 965.953L894.776 965.952H897.896L900.67 965.951H903.79L906.564 965.95H909.684L912.458 965.949L915.578 965.948H918.352L921.472 965.947H924.245L927.366 965.946H930.139L933.26 965.945L936.033 965.944H939.154L941.927 965.935L945.139 965.867L948.568 965.656L953.043 965.168L958.285 964.292L964.014 962.993L969.35 961.441L974.104 959.691L978.339 957.782L982.496 955.615L986.548 953.232L990.058 950.955L993.378 948.511L996.249 946.156L999.468 943.256L1002.31 940.451L1005.27 937.244L1007.67 934.382L1010.06 931.276L1012.02 928.454L1014.01 925.292L1015.69 922.297L1017.35 919.049L1018.71 916.093L1020.04 912.811L1021.22 909.276L1022.35 905.398L1023.27 901.459L1023.92 898.151L1024.41 894.808L1024.71 891.99L1024.93 888.791L1025 886.018L1024.92 882.893L1024.72 880.197L1024.33 877.1L1023.9 874.452L1023.23 871.282L1022.52 868.518L1021.53 865.217L1020.51 862.204L1019.27 858.88L1018.05 855.976L1016.58 852.868L1015.21 850.169L1013.61 847.125L1012.21 844.534L1010.49 841.421L1008.89 838.599L1006.97 835.266L1005.03 831.934L1002.86 828.236L1000.68 824.533L998.704 821.188L996.728 817.827L994.666 814.292L992.158 809.977L989.539 805.462L987.03 801.14L984.974 797.596L983.019 794.224L980.966 790.687L978.461 786.371L975.842 781.855L973.334 777.532L971.277 773.986L969.322 770.615L967.269 767.078L964.765 762.763L962.146 758.247L959.637 753.923L957.58 750.377L955.627 747.011L953.688 743.668L951.533 739.955L949.377 736.239L947.427 732.876L945.523 729.594L943.829 726.673L941.932 723.404L939.992 720.062L937.838 716.349L935.681 712.632L933.735 709.277L931.781 705.907L929.727 702.367L927.221 698.049L924.602 693.534L922.095 689.213L920.039 685.669L918.084 682.298L916.03 678.759L913.525 674.441L910.906 669.926L908.398 665.604L906.342 662.06L904.387 658.689L902.334 655.151L899.829 650.834L897.21 646.319L894.702 641.996L892.645 638.451L890.692 635.084L888.751 631.739L886.596 628.025L884.44 624.309L882.493 620.951L880.591 617.672L878.897 614.751L876.998 611.48L875.055 608.131L872.901 604.418L870.744 600.702L868.8 597.349L866.845 593.981L864.79 590.439L862.285 586.12L859.664 581.604L857.159 577.284L855.105 573.743L853.148 570.372L851.094 566.831L848.589 562.513L845.968 557.997L843.463 553.677L841.408 550.134L839.451 546.763L837.397 543.223L834.893 538.906L832.272 534.389L829.766 530.069L827.711 526.525L825.756 523.158L823.813 519.808L821.657 516.093L819.503 512.379L817.558 509.026L815.658 505.75L813.963 502.829L812.062 499.554L810.117 496.202L807.962 492.487L805.81 488.771L803.866 485.413L801.971 482.131L800.282 479.207L798.39 475.931L796.451 472.578L794.306 468.859L792.16 465.137L790.226 461.779L788.283 458.405L786.239 454.857L783.746 450.53L781.141 446.006L778.651 441.676L776.61 438.125L774.667 434.747L772.627 431.2L770.139 426.873L767.538 422.346L765.05 418.013L763.01 414.458L761.07 411.079L759.032 407.533L756.548 403.207L753.949 398.679L751.462 394.342L749.423 390.784L747.487 387.41L745.563 384.063L743.426 380.342L741.289 376.612L739.355 373.229L737.468 369.931L735.789 367.003L733.908 363.731L731.987 360.391L729.852 356.671L727.713 352.939L725.782 349.564L723.847 346.189L721.922 342.841L719.785 339.118L717.648 335.389L715.721 332.021L713.783 328.643L711.745 325.094L709.26 320.767L706.661 316.239L704.175 311.904L702.135 308.348L700.196 304.975L698.268 301.625L696.13 297.903L693.989 294.177L692.06 290.813L690.119 287.437L688.078 283.889L685.587 279.562L682.983 275.038L680.493 270.707L678.449 267.157L676.505 263.784L674.572 260.432L672.428 256.712L670.282 252.991L668.348 249.635L666.402 246.262L664.354 242.716L661.856 238.392L659.244 233.872L656.745 229.549L654.696 226.004L652.745 222.634L650.803 219.28L648.649 215.562L646.496 211.848L644.557 208.503L642.604 205.137L640.652 201.776L638.493 198.057L636.339 194.349L634.399 191.016L632.444 187.655L630.379 184.107L627.86 179.784L625.232 175.274L622.719 170.969L620.66 167.443L618.692 164.074L616.726 160.708L614.553 156.993L612.388 153.296L610.447 149.99L608.542 146.748L606.833 143.835L604.905 140.544L602.924 137.16L600.742 133.449L598.577 129.775L596.632 126.489L594.616 123.064L592.555 119.522L590.223 115.491L587.96 111.569L585.935 108.111L583.988 104.858L582.207 101.972L580.239 98.8487L578.387 95.9873L576.232 92.7974L574.094 89.8252L571.588 86.5919L569.229 83.8061L566.444 80.8228L563.257 77.8335L558.959 74.2394L555.5 71.5302L552.108 69.0902" stroke="currentColor" stroke-linecap="round" stroke-linejoin="round"/>
<path d="M538.756 62.2705L546.171 64.8194" stroke="currentColor" stroke-linecap="round" stroke-linejoin="round"/>
<path d="M552.105 69.0907L546.168 64.8203" stroke="currentColor" stroke-linecap="round" stroke-linejoin="round"/>
<path d="M513.5 813.26C513.776 813.26 514 813.036 514 812.76C514 812.484 513.776 812.26 513.5 812.26C513.224 812.26 513 812.484 513 812.76C513 813.036 513.224 813.26 513.5 813.26Z" stroke="currentColor" stroke-linecap="round" stroke-linejoin="round"/>
<line x1="513.5" y1="275.772" x2="513.5" y2="696.235" stroke="currentColor" stroke-linecap="round" stroke-linejoin="round"/>
</svg>
