<svg xmlns="http://www.w3.org/2000/svg" width="1024" height="1024" viewBox="-51.5 -51.5 1127.0 1127.0">
  <g fill="none" stroke="#15403d" stroke-width="45" stroke-linecap="round" stroke-linejoin="round">
    <path d="M 211.27,139.764 C 193.619,141.861 182.505,145.286 175.539,148.521 C 161.433,158.494 149.528,171.37 142.788,183.792 C 139.212,196.634 138.048,207.442 137.946,235.446" data-line="nan" stroke-width="45.0"></path>
    <path d="M 137.476,943.207 C 137.871,952.879 139.34,963.007 144.247,979.354 C 152.433,992.693 158.279,999.184 163.914,1004.057 C 177.896,1012.827 193.007,1017.757 207.485,1019.684 L 237.831,1019.967" data-line="nan" stroke-width="45.0"></path>
    <path d="M 802.767,1019.782 C 822.439,1018.394 832.72,1015.946 841.67,1012.491 C 848.459,1008.991 856.889,1003.232 866.934,994.277 C 872.699,987.588 880.702,973.456 884.703,958.959 Q 886.393,943.207 886.379,910.619" data-line="nan" stroke-width="45.0"></path>
    <path d="M 885.71,216.098 C 884.451,197.067 880.765,183.014 874.278,170.178 C 866.106,160.26 855.342,151.405 841.592,144.68 Q 829.693,141.461 812.017,139.834" data-line="nan" stroke-width="45.0"></path>
    <path d="M 313.862,231.133 L 314.945,124.241" data-line="1.0" stroke-width="45.0"></path>
    <path d="M 709.884,231.229 L 313.862,231.133" data-line="2.0" stroke-width="45.0"></path>
    <path d="M 710.668,133.912 L 709.884,231.229" data-line="3.0" stroke-width="45.0"></path>
    <path d="M 627.0296635560327,124.65289774247198 A 114.9516333794192,114.9516333794192 0 1,0 397.479485627102,125.27677746297162" data-line="4.0" stroke-width="45.0"></path>
    <path d="M 701.314,125.025 L 627.544,124.68" data-line="5.0" stroke-width="45.0"></path>
    <path d="M 396.203,125.351 L 314.945,124.241" data-line="7.0" stroke-width="45.0"></path>
    <path d="M 726.852,139.589 L 710.668,133.912" data-line="18.0" stroke-width="45.0"></path>
    <path d="M 313.156,139.706 L 211.27,139.764" data-line="18.0" stroke-width="45.0"></path>
    <path d="M 701.314,125.025 L 710.668,133.912" data-line="19.0" stroke-width="45.0"></path>
    <circle cx="320.92553009909716" cy="427.0370367140294" r="52.800436766110934" data-line="20.0" stroke-width="45.0"></circle>
    <path d="M 455.629,426.291 L 759.977,426.187" data-line="22.0" stroke-width="45.0"></path>
    <path d="M 812.017,139.834 L 726.852,139.589" data-line="23.0" stroke-width="45.0"></path>
    <circle cx="320.37743892710796" cy="617.9358895005254" r="52.82230783980095" data-line="23.0" stroke-width="45.0"></circle>
    <path d="M 354.656,658.641 L 359.668,654.545" data-line="24.0" stroke-width="45.0"></path>
    <path d="M 456.879,618.061 L 758.205,618.698" data-line="26.0" stroke-width="45.0"></path>
    <circle cx="320.06429675095643" cy="809.2305084135601" r="52.81258539662265" data-line="27.0" stroke-width="45.0"></circle>
    <path d="M 458.592,809.126 L 758.534,808.993" data-line="29.0" stroke-width="45.0"></path>
    <path d="M 137.946,235.446 L 137.476,943.207" data-line="30.0" stroke-width="45.0"></path>
    <path d="M 237.831,1019.967 L 802.767,1019.782" data-line="32.0" stroke-width="45.0"></path>
    <path d="M 886.379,910.619 L 885.71,216.098" data-line="34.0" stroke-width="45.0"></path>
  </g>
</svg>