<svg xmlns="http://www.w3.org/2000/svg" width="1024" height="1024" viewBox="-51.5 -51.5 1127.0 1127.0">
  <g fill="none" stroke="#15403d" stroke-width="45" stroke-linecap="round" stroke-linejoin="round">
    <path d="M 251.388,78.694 C 213.69,103.17 195.689,116.643 176.56,132.375 C 159.767,147.585 142.923,164.359 127.527,181.202 C 111.218,200.95 95.81,221.6 83.572,239.586 C 67.984,265.262 56.917,285.83 46.042,308.793 C 37.272,330.134 29.236,352.633 22.971,373.035 C 17.049,396.067 11.865,421.369 8.33,444.202 C 5.857,466.867 4.418,489.649 4.013,512.392 C 4.671,535.765 6.717,562.133 10.158,589.355 C 14.255,612.311 20.569,639.467 25.822,657.854 C 31.926,676.64 41.852,702.557 50.84,722.728 C 61.916,744.875 84.137,782.516 99.715,805.15 C 114.463,824.516 128.516,841.328 146.484,860.825 C 165.869,879.84 183.022,895.075 203.185,911.341 C 219.803,923.516 257.383,947.551 279.901,959.77 C 302.901,970.835 333.085,983.451 346.822,988.371 C 370.217,995.887 396.135,1002.504 435.886,1009.962 C 466.928,1013.447 487.041,1014.577 506.785,1015.158 C 533.91,1014.522 578.124,1010.52 606.438,1006.011 C 634.111,1000.069 658.935,993.311 681.761,985.979 Q 702.465,978.374 725.887,968.524" data-line="nan" stroke-width="45.0"></path>
    <path d="M 539.004,9.743 C 502.215,8.897 462.877,10.854 424.008,15.743 C 390.104,22.671 352.781,33.148 318.703,45.545 Q 284.608,60.844 251.388,78.694" data-line="nan" stroke-width="45.0"></path>
    <path d="M 641.768,303.531 L 844.707,509.115" data-line="0.0" stroke-width="45.0"></path>
    <path d="M 641.833,710.04 L 844.707,509.115" data-line="1.0" stroke-width="45.0"></path>
    <path d="M 383.957,304.935 L 180.486,508.479" data-line="5.0" stroke-width="45.0"></path>
    <path d="M 180.486,508.479 L 381.542,707.841" data-line="6.0" stroke-width="45.0"></path>
    <path d="M 725.9002303254236,968.5533168451134 A 499.18476592468903,499.18476592468903 0 0,0 1019.2007249658407,490.14095582588885" data-line="7.0" stroke-width="45.0"></path>
    <path d="M 1019.647,490.12 L 1002.333,376.837" data-line="8.0" stroke-width="45.0"></path>
    <path d="M 1002.6123395910049,376.75721332287077 A 505.9791441503147,505.9791441503147 0 0,0 538.9806040817515,10.25961795706985" data-line="9.0" stroke-width="45.0"></path>
  </g>
</svg>