<svg xmlns="http://www.w3.org/2000/svg" width="1024" height="1024" viewBox="-51.5 -51.5 1127.0 1127.0">
  <g fill="none" stroke="#15403d" stroke-width="45" stroke-linecap="round" stroke-linejoin="round">
    <path d="M 44.736,275.664 C 44.484,252.829 47.464,233.291 52.97,216.885 C 57.772,207.736 62.342,201.05 73.403,188.914 C 85.682,179.796 99.274,172.361 132.996,157.699" data-line="nan" stroke-width="45.0"></path>
    <path d="M 452.752,22.723 C 492.165,7.624 501.922,5.241 512.277,4.077 C 523.792,4.548 534.188,6.738 560.697,16.646" data-line="nan" stroke-width="45.0"></path>
    <path d="M 979.059,278.689 C 976.81,332.829 973.611,372.672 969.572,412.65 C 965.157,444.68 958.837,479.337 951.423,512.152 C 942.869,544.057 932.865,575.902 920.28,610.407 C 907.819,639.913 892.992,670.675 878.388,697.434 C 859.823,727.562 840.782,755.683 821.182,782.157 C 797.957,810.38 771.593,838.717 737.902,871.677 C 707.725,898.528 675.174,925.123 643.186,949.237 C 609.212,972.872 554.187,1006.417 535.756,1015.537 C 525.113,1018.662 511.595,1019.974 499.397,1018.17 C 485.528,1013.169 471.304,1005.677 443.223,988.967 L 391.069,954.327" data-line="nan" stroke-width="45.0"></path>
    <path d="M 391.069,954.327 C 326.08740056038357,908.6803539240683 246.32304909773725,838.2242234094512 197.461,771.862" data-line="0.0" stroke-width="45.0"></path>
    <path d="M 780.296,312.702 L 460.797,637.425" data-line="2.0" stroke-width="45.0"></path>
    <path d="M 272.433,453.392 L 460.797,637.425" data-line="3.0" stroke-width="45.0"></path>
    <path d="M 197.24133870275637,772.0263712932076 A 724.0324709935254,724.0324709935254 0 0,1 62.72703576298477,457.0700355244419" data-line="4.0" stroke-width="45.0"></path>
    <path d="M 62.583,457.094 L 44.736,275.664" data-line="5.0" stroke-width="45.0"></path>
    <path d="M 132.996,157.699 L 452.752,22.723" data-line="7.0" stroke-width="45.0"></path>
    <path d="M 920.5665868574888,170.01520002093758 A 93.65327021678758,93.65327021678758 0 0,1 977.8583393814222,278.4111715109964" data-line="8.0" stroke-width="45.0"></path>
    <path d="M 560.697,16.646 L 920.576,169.991" data-line="9.0" stroke-width="45.0"></path>
  </g>
</svg>